HIERARCHY
ROOT SpineBase
{
  OFFSET 0.000000 0.000000 0.000000
  CHANNELS 6 Xposition Yposition Zposition Zrotation Xrotation Yrotation
  JOINT SpineMid
  {
    OFFSET -0.000000 26.932512 -0.000000
    CHANNELS 3 Zrotation Xrotation Yrotation
    JOINT SpineShoulder
    {
      OFFSET -0.064310 19.808781 -0.523277
      CHANNELS 3 Zrotation Xrotation Yrotation
      JOINT Neck
      {
        OFFSET -0.044482 6.477099 -0.440594
        CHANNELS 3 Zrotation Xrotation Yrotation
        JOINT Head
        {
          OFFSET -1.651136 9.635421 -2.771981
          CHANNELS 3 Zrotation Xrotation Yrotation
          End Site
          {
            OFFSET 0 0 0
          }
        }
      }
      JOINT ShoulderLeft
      {
        OFFSET -15.527251 -3.087803 4.918731
        CHANNELS 3 Zrotation Xrotation Yrotation
        JOINT ElbowLeft
        {
          OFFSET -8.876848 -26.200749 0.543200
          CHANNELS 3 Zrotation Xrotation Yrotation
          JOINT WristLeft
          {
            OFFSET -6.522955 -10.928233 -10.788665
            CHANNELS 3 Zrotation Xrotation Yrotation
            JOINT HandLeft
            {
              OFFSET -1.592760 -3.803772 -2.605416
              CHANNELS 3 Zrotation Xrotation Yrotation
              JOINT HandTipLeft
              {
                OFFSET 0.663151 -4.501944 -2.616013
                CHANNELS 3 Zrotation Xrotation Yrotation
                End Site
                {
                  OFFSET 0 0 0
                }
              }
              JOINT ThumbLeft
              {
                OFFSET 3.189343 -2.615895 -1.338175
                CHANNELS 3 Zrotation Xrotation Yrotation
                End Site
                {
                  OFFSET 0 0 0
                }
              }
            }
          }
        }
      }
      JOINT ShoulderRight
      {
        OFFSET 16.749858 -1.844920 -5.352586
        CHANNELS 3 Zrotation Xrotation Yrotation
        JOINT ElbowRight
        {
          OFFSET 9.937057 -19.786584 -6.346241
          CHANNELS 3 Zrotation Xrotation Yrotation
          JOINT WristRight
          {
            OFFSET 0.481520 -18.904013 -11.341726
            CHANNELS 3 Zrotation Xrotation Yrotation
            JOINT HandRight
            {
              OFFSET -1.906438 -5.938475 0.882428
              CHANNELS 3 Zrotation Xrotation Yrotation
              JOINT HandTipRight
              {
                OFFSET -0.179310 -4.763700 -0.533499
                CHANNELS 3 Zrotation Xrotation Yrotation
                End Site
                {
                  OFFSET 0 0 0
                }
              }
              JOINT ThumbRight
              {
                OFFSET 1.911827 -1.489853 -2.685996
                CHANNELS 3 Zrotation Xrotation Yrotation
                End Site
                {
                  OFFSET 0 0 0
                }
              }
            }
          }
        }
      }
    }
  }
  JOINT HipLeft
  {
    OFFSET -6.417128 -0.346992 -1.669151
    CHANNELS 3 Zrotation Xrotation Yrotation
    JOINT KneeLeft
    {
      OFFSET -15.905217 -9.695885 -25.125174
      CHANNELS 3 Zrotation Xrotation Yrotation
      JOINT AnkleLeft
      {
        OFFSET 1.671913 -36.986059 10.400443
        CHANNELS 3 Zrotation Xrotation Yrotation
        JOINT FootLeft
        {
          OFFSET -1.537764 -9.138982 -9.387104
          CHANNELS 3 Zrotation Xrotation Yrotation
          End Site
          {
            OFFSET 0 0 0
          }
        }
      }
    }
  }
  JOINT HipRight
  {
    OFFSET 6.092240 -0.498092 -5.110199
    CHANNELS 3 Zrotation Xrotation Yrotation
    JOINT KneeRight
    {
      OFFSET 4.488403 -7.886388 -31.500469
      CHANNELS 3 Zrotation Xrotation Yrotation
      JOINT AnkleRight
      {
        OFFSET 7.183563 -34.319634 10.184065
        CHANNELS 3 Zrotation Xrotation Yrotation
        JOINT FootRight
        {
          OFFSET -1.881014 -9.177645 -9.367149
          CHANNELS 3 Zrotation Xrotation Yrotation
          End Site
          {
            OFFSET 0 0 0
          }
        }
      }
    }
  }
}
MOTION
Frames: 10
Frame Time: 0.033333
23.035657 55.460801 396.531833 1.773221 0.520700 16.466521 -0.468169 -1.128737 -16.419798 -0.134381 0.258784 0.055901 0.456417 10.559576 2.065215 0.000000 0.000000 0.000000 -3.096519 1.601831 -0.490102 3.816499 -2.058475 -1.158432 14.648735 -16.766842 0.128635 -14.038695 4.153715 2.518627 0.000000 0.000000 0.000000 0.000000 0.000000 0.000000 -3.213279 -5.716563 -2.790360 5.027994 16.937207 -0.184477 -6.466538 -18.551002 2.971793 -1.312515 5.053197 -1.146582 0.000000 0.000000 0.000000 0.000000 0.000000 0.000000 -2.182279 1.106698 -16.411997 2.363729 -2.719389 0.407246 -6.802453 -11.113417 7.371388 0.000000 0.000000 0.000000 -1.949551 0.257238 -15.681245 -0.117372 -1.134901 -1.068910 -0.516443 0.957822 1.073127 0.000000 0.000000 0.000000
23.035312 55.430077 396.935202 1.740446 -0.233990 15.846136 -0.268927 -0.495967 -15.794968 -0.141031 0.357848 0.053624 0.550571 10.444477 2.061933 0.000000 0.000000 0.000000 -3.304582 1.307949 -0.397207 4.883008 -1.935506 -1.989232 3.523692 -6.550099 1.658923 -6.147903 -1.720178 0.034786 0.000000 0.000000 0.000000 0.000000 0.000000 0.000000 -3.133074 -5.782338 -2.831578 5.173225 16.695349 -0.290386 -8.174231 -17.500851 2.278266 -0.392234 4.852080 -0.698451 0.000000 0.000000 0.000000 0.000000 0.000000 0.000000 -1.825916 1.872163 -16.203923 1.245934 -2.534510 0.533500 -2.956757 -3.465536 3.115423 0.000000 0.000000 0.000000 -1.581137 1.326326 -14.934870 0.008873 -1.700794 -1.159424 -0.808994 1.423441 1.133258 0.000000 0.000000 0.000000
22.912524 55.377387 397.080022 1.442646 -0.303549 15.866397 -0.111016 -0.643530 -15.818373 -0.116897 0.382600 0.050396 1.134086 10.521583 2.150287 0.000000 0.000000 0.000000 -3.412184 1.153219 -0.289906 4.301187 -0.750021 -1.892489 1.991615 -5.861481 2.175394 -4.120040 -0.686183 -0.550711 0.000000 0.000000 0.000000 0.000000 0.000000 0.000000 -3.181084 -5.822406 -2.883092 5.313535 17.270606 -0.284521 -8.503700 -20.014842 2.705684 -0.216600 8.627880 -1.172422 0.000000 0.000000 0.000000 0.000000 0.000000 0.000000 -1.450266 1.904299 -16.463767 0.769990 -2.607111 0.634913 -1.548836 0.546470 1.499549 0.000000 0.000000 0.000000 -1.103494 1.524866 -15.244628 0.022548 -2.086232 -0.866583 -0.964517 1.575373 1.166235 0.000000 0.000000 0.000000
22.663881 55.395864 396.729298 1.031034 0.464550 16.256836 -0.132038 -1.299521 -16.219166 -0.041749 0.171657 0.046557 1.859530 10.345354 2.225886 0.000000 0.000000 0.000000 -3.331111 1.060486 -0.221452 4.418638 -0.264500 -2.183702 4.223325 -9.054261 2.517265 -7.853753 0.042341 0.717022 0.000000 0.000000 0.000000 0.000000 0.000000 0.000000 -3.002361 -5.690073 -2.841078 4.711333 14.836029 0.182216 -7.174124 -13.389924 1.830253 -1.125995 6.419715 -0.125626 0.000000 0.000000 0.000000 0.000000 0.000000 0.000000 -1.249104 0.822016 -16.700984 0.644814 -2.643890 0.434482 -0.226406 1.744797 0.018742 0.000000 0.000000 0.000000 -1.119857 -0.157283 -16.262553 -0.025020 -1.524130 -0.325526 -0.809242 1.412796 1.210560 0.000000 0.000000 0.000000
22.358803 55.255249 396.727828 0.586605 0.482219 16.476372 -0.008900 -1.237729 -16.449163 0.049189 -0.011052 0.039132 2.330869 10.210660 2.250783 0.000000 0.000000 0.000000 -3.263191 0.852697 -0.115526 3.639514 2.195154 -2.620797 0.511782 -7.193592 3.853392 -3.345598 -7.121484 -1.862214 0.000000 0.000000 0.000000 0.000000 0.000000 0.000000 -2.756859 -5.536337 -2.775175 4.446604 13.695397 0.365286 -5.914593 -10.844711 1.694037 -2.523537 5.334512 0.212734 0.000000 0.000000 0.000000 0.000000 0.000000 0.000000 -0.833009 0.923791 -17.087823 0.743597 -2.815961 0.612285 -0.486036 3.397473 -0.010062 0.000000 0.000000 0.000000 -0.113689 0.511117 -17.248662 -0.315797 -2.408710 0.454524 -0.787419 1.213703 1.191914 0.000000 0.000000 0.000000
22.056320 55.162846 396.208521 0.201614 1.290975 17.574001 -0.582094 -1.169817 -17.582215 0.669262 -0.652275 0.044837 2.869632 10.080041 2.308590 0.000000 0.000000 0.000000 -2.613580 1.141598 -0.211296 4.150006 0.142603 -2.341432 0.133536 -4.564259 2.855125 -4.856144 -5.120090 0.097302 0.000000 0.000000 0.000000 0.000000 0.000000 0.000000 -2.433996 -5.510957 -2.712361 4.426186 13.429272 0.344421 -5.866241 -10.768162 1.733322 -2.912834 5.755298 0.261209 0.000000 0.000000 0.000000 0.000000 0.000000 0.000000 -0.816760 0.083163 -17.857706 1.222488 -2.999724 0.385942 -1.234234 1.042422 0.736022 0.000000 0.000000 0.000000 0.212809 -0.516196 -19.261781 -0.497189 -2.578860 1.330264 -0.623135 0.894810 1.184347 0.000000 0.000000 0.000000
21.782604 55.006344 395.985171 -0.040068 1.630374 18.558604 -0.481035 -1.558328 -18.564576 -0.000000 0.000000 0.000000 2.551264 9.284968 2.163485 0.000000 0.000000 0.000000 -1.745994 0.787440 -0.289538 3.115334 -0.482768 -1.199737 14.746372 -19.926940 2.291337 -16.040903 6.752024 3.407568 0.000000 0.000000 0.000000 0.000000 0.000000 0.000000 -1.775997 -6.233621 -2.729141 4.904849 14.691454 0.003460 -7.124955 -13.602151 2.049709 -2.318763 5.356550 -0.010096 0.000000 0.000000 0.000000 0.000000 0.000000 0.000000 -0.808863 -0.004009 -18.720683 1.560242 -3.321672 0.312207 -1.369957 0.709563 0.770646 0.000000 0.000000 0.000000 0.613749 -0.813424 -21.037904 -0.691787 -2.960530 2.095133 -0.608644 0.663801 1.301062 0.000000 0.000000 0.000000
21.583493 54.805996 395.948920 -0.125781 1.613773 19.364345 -0.416507 -1.564176 -19.368259 -0.000000 0.000000 0.000000 1.901530 8.967200 1.976523 0.000000 0.000000 0.000000 -1.581456 0.994927 -0.354553 2.570421 -0.315298 -0.976172 20.891055 -23.679695 1.371086 -21.727091 8.412699 7.299061 0.000000 0.000000 0.000000 0.000000 0.000000 0.000000 -1.934516 -6.388288 -2.771628 5.551021 16.427688 -0.383755 -8.588224 -17.455421 2.356892 -0.248508 6.740091 -0.712868 0.000000 0.000000 0.000000 0.000000 0.000000 0.000000 -0.797509 0.388904 -19.567000 1.889666 -3.647012 0.406558 -1.464925 0.547733 0.731730 0.000000 0.000000 0.000000 0.997370 -0.553686 -22.357771 -0.918681 -3.294751 2.597710 -0.505163 0.474695 1.306781 0.000000 0.000000 0.000000
21.458640 54.558899 396.084830 -0.079851 1.303440 20.017010 -0.371191 -1.252027 -20.020158 -0.000000 0.000000 0.000000 1.255520 8.694632 1.794277 0.000000 0.000000 0.000000 -1.390304 0.970444 -0.344489 3.651324 -2.072095 -1.152102 19.483987 -20.773698 -0.128477 -23.903181 8.489596 9.718498 0.000000 0.000000 0.000000 0.000000 0.000000 0.000000 -1.778747 -6.324766 -2.777682 5.370070 16.768205 -0.344053 -9.032713 -18.506204 2.288470 -2.453839 5.291111 -0.263698 0.000000 0.000000 0.000000 0.000000 0.000000 0.000000 -0.717445 1.057570 -20.466224 2.147837 -4.022136 0.708889 -1.473645 0.727396 0.551755 0.000000 0.000000 0.000000 1.396263 0.241650 -23.210228 -1.095632 -3.723673 2.795449 -0.325525 0.440838 1.133145 0.000000 0.000000 0.000000
21.446446 54.322983 396.335162 0.119058 0.716803 20.511282 -0.362690 -0.629637 -20.514019 -0.000000 0.000000 0.000000 0.859458 8.556983 1.686026 0.000000 0.000000 0.000000 -1.255045 0.964443 -0.341013 4.311454 -3.400897 -1.100827 15.908977 -15.426440 -1.894705 -22.250694 8.326831 9.742134 0.000000 0.000000 0.000000 0.000000 0.000000 0.000000 -1.514743 -6.150183 -2.752365 4.881733 16.375773 -0.148174 -8.724086 -17.819824 2.128949 -1.575899 2.776922 -0.439567 0.000000 0.000000 0.000000 0.000000 0.000000 0.000000 -0.612494 1.978532 -21.342278 2.419355 -4.225921 1.177626 -1.551416 1.015304 0.292427 0.000000 0.000000 0.000000 1.637800 1.300123 -23.593567 -1.190355 -4.034677 2.671820 -0.144188 0.622452 0.896064 0.000000 0.000000 0.000000
